HIERARCHY
ROOT Hips
{
	OFFSET 0.000000 0.000000 0.000000
	CHANNELS 6 Xposition Yposition Zposition Zrotation Yrotation Xrotation 
	JOINT LowerBack
	{
		OFFSET 0.000000 0.000000 0.000000
		CHANNELS 3 Zrotation Yrotation Xrotation
		JOINT Spine
		{
			OFFSET 0.028270 2.035590 -0.193380
			CHANNELS 3 Zrotation Yrotation Xrotation
			JOINT Spine1
			{
				OFFSET 0.056720 2.048850 -0.042750
				CHANNELS 3 Zrotation Yrotation Xrotation
				JOINT Neck
				{
					OFFSET 0.000000 0.000000 0.000000
					CHANNELS 3 Zrotation Yrotation Xrotation
					JOINT Neck1
					{
						OFFSET -0.054170 1.746240 0.172020
						CHANNELS 3 Zrotation Yrotation Xrotation
						JOINT Head
						{
							OFFSET 0.104070 1.761360 -0.123970
							CHANNELS 3 Zrotation Yrotation Xrotation
							End Site
							{
								OFFSET 0.000000 0.000000 0.000000
							}
						}
					}
				}
				JOINT LeftShoulder
				{
					OFFSET 0.000000 0.000000 0.000000
					CHANNELS 3 Zrotation Yrotation Xrotation
					JOINT LeftArm
					{
						OFFSET 3.362410 1.200890 -0.311210
						CHANNELS 3 Zrotation Yrotation Xrotation
						JOINT LeftForeArm
						{
							OFFSET 4.983000 -0.000000 -0.000000
							CHANNELS 3 Zrotation Yrotation Xrotation
							JOINT LeftHand
							{
								OFFSET 3.483560 -0.000000 -0.000000
								CHANNELS 3 Zrotation Yrotation Xrotation
								JOINT LeftFingerBase
								{
									OFFSET 0.000000 0.000000 0.000000
									CHANNELS 3 Zrotation Yrotation Xrotation
									JOINT LeftHandIndex1
									{
										OFFSET 0.715260 -0.000000 -0.000000
										CHANNELS 3 Zrotation Yrotation Xrotation
										End Site
										{
											OFFSET 0.000000 0.000000 0.000000
										}
									}
								}
								JOINT LThumb
								{
									OFFSET 0.000000 0.000000 0.000000
									CHANNELS 3 Zrotation Yrotation Xrotation
									End Site
									{
										OFFSET 0.000000 0.000000 0.000000
									}
								}
							}
						}
					}
				}
				JOINT RightShoulder
				{
					OFFSET 0.000000 0.000000 0.000000
					CHANNELS 3 Zrotation Yrotation Xrotation
					JOINT RightArm
					{
						OFFSET -3.136600 1.374050 -0.404650
						CHANNELS 3 Zrotation Yrotation Xrotation
						JOINT RightForeArm
						{
							OFFSET -5.241900 -0.000000 -0.000000
							CHANNELS 3 Zrotation Yrotation Xrotation
							JOINT RightHand
							{
								OFFSET -3.444170 -0.000000 -0.000000
								CHANNELS 3 Zrotation Yrotation Xrotation
								JOINT RightFingerBase
								{
									OFFSET 0.000000 0.000000 0.000000
									CHANNELS 3 Zrotation Yrotation Xrotation
									JOINT RightHandIndex1
									{
										OFFSET -0.622530 -0.000000 -0.000000
										CHANNELS 3 Zrotation Yrotation Xrotation
										End Site
										{
											OFFSET 0.000000 0.000000 0.000000
										}
									}
								}
								JOINT RThumb
								{
									OFFSET 0.000000 0.000000 0.000000
									CHANNELS 3 Zrotation Yrotation Xrotation
									End Site
									{
										OFFSET 0.000000 0.000000 0.000000
									}
								}
							}
						}
					}
				}
			}
		}
	}
}
}
MOTION
Frames: 12
Frame Time: 0.008333
3.080166 15.984298 -2.022648 173.261971 57.104558 -172.423961 -3.715149 -0.367596 -4.062219 -1.382307 -0.141381 -3.571298 -6.768314 0.096350 -0.921614 8.572852 -11.625928 -7.292832 -3.474962 -0.267486 0.064910 0.000000 0.000000 0.000000 1.313424 11.195051 -2.035438 -77.361543 -15.851723 19.891900 -178.763665 -65.848197 179.802598 24.852159 -22.115570 -5.390237 -0.796544 1.349339 -0.000000 0.000000 0.000000 0.000000 0.000000 0.000000 0.000000 5.649432 -5.787392 -1.714720 80.931917 1.198857 27.346275 -179.085160 71.384855 179.836612 -14.368879 26.862920 -3.649175 0.175501 -1.150921 0.000000 0.000000 0.000000 0.000000 0.000000 0.000000 0.000000 
3.261897 16.030937 -2.097025 173.713734 56.484935 -171.836814 -3.510436 -0.625330 -4.214244 -1.297376 -0.413162 -3.583097 -6.723536 -0.187812 -0.947376 8.590930 -12.300486 -7.221049 -3.412830 -0.264151 0.093711 0.000000 0.000000 0.000000 1.637031 9.933607 -2.116573 -77.999819 -17.624052 21.306435 -178.709098 -66.035727 179.800086 24.364669 -22.289757 -5.333950 -0.794764 1.388456 -0.000000 0.000000 0.000000 0.000000 0.000000 0.000000 0.000000 5.355953 -6.784758 -1.562028 80.153401 -0.300832 26.954079 -179.027880 70.726379 179.831724 -14.821844 26.620579 -3.730072 0.180253 -1.142004 -0.000000 0.000000 0.000000 0.000000 0.000000 0.000000 0.000000 
3.446883 16.091600 -2.177409 174.199283 55.903617 -171.266120 -3.258698 -0.910526 -4.358161 -1.197811 -0.716015 -3.593065 -6.655140 -0.504310 -0.957023 8.586287 -12.968937 -7.175273 -3.342874 -0.259948 0.115807 0.000000 0.000000 0.000000 2.041271 8.779045 -2.197228 -78.636851 -19.211656 22.669366 -178.650911 -66.074513 179.799102 23.802013 -22.510495 -5.269932 -0.791104 1.429632 -0.000000 0.000000 0.000000 0.000000 0.000000 0.000000 0.000000 5.002644 -7.760533 -1.425661 79.385768 -1.746143 26.642697 -178.978440 70.043470 179.827876 -15.192542 26.394180 -3.790675 0.184336 -1.134025 -0.000000 0.000000 0.000000 0.000000 0.000000 0.000000 0.000000 
3.635226 16.165339 -2.263589 174.704237 55.365755 -170.726864 -2.971314 -1.222529 -4.490894 -1.085554 -1.048199 -3.602493 -6.561510 -0.851631 -0.956298 8.558408 -13.612764 -7.149220 -3.267724 -0.255134 0.132692 0.000000 0.000000 0.000000 2.521017 7.731253 -2.277783 -79.275654 -20.587508 23.954532 -178.590794 -65.973650 179.799651 23.169430 -22.758338 -5.193488 -0.785178 1.471704 -0.000000 0.000000 0.000000 0.000000 0.000000 0.000000 0.000000 4.601403 -8.697639 -1.306866 78.620753 -3.129448 26.403735 -178.936922 69.351267 179.825044 -15.471665 26.198479 -3.831385 0.187321 -1.127094 0.000000 0.000000 0.000000 0.000000 0.000000 0.000000 0.000000 
3.826972 16.251114 -2.355310 175.220176 54.877046 -170.227160 -2.656825 -1.558655 -4.610661 -0.962604 -1.406288 -3.611694 -6.443782 -1.226326 -0.946216 8.510004 -14.221019 -7.140425 -3.189336 -0.249865 0.144836 0.000000 0.000000 0.000000 3.061390 6.802903 -2.358181 -79.913899 -21.750158 25.156095 -178.529424 -65.759477 179.801676 22.483312 -23.011066 -5.102314 -0.777139 1.513275 0.000000 0.000000 0.000000 0.000000 0.000000 0.000000 0.000000 4.168091 -9.586536 -1.208475 77.848762 -4.439550 26.230499 -178.903814 68.662558 179.823206 -15.656363 26.043216 -3.853810 0.189027 -1.121261 0.000000 0.000000 0.000000 0.000000 0.000000 0.000000 0.000000 
4.022127 16.347683 -2.452290 175.746814 54.443585 -169.767072 -2.321461 -1.913634 -4.716405 -0.830718 -1.784480 -3.622106 -6.302743 -1.622768 -0.932565 8.443379 -14.783982 -7.142091 -3.110100 -0.244407 0.154041 0.000000 0.000000 0.000000 3.653622 5.982268 -2.438685 -80.552414 -22.681324 26.260538 -178.471069 -65.453188 179.804936 21.761305 -23.250627 -4.995915 -0.766933 1.553096 -0.000000 0.000000 0.000000 0.000000 0.000000 0.000000 0.000000 3.716050 -10.418595 -1.131244 77.061572 -5.673786 26.111040 -178.879245 67.985837 179.822308 -15.746068 25.932818 -3.858851 0.189295 -1.116489 0.000000 0.000000 0.000000 0.000000 0.000000 0.000000 0.000000 
4.220616 16.453604 -2.554140 176.290489 54.070674 -169.339391 -1.967676 -2.280419 -4.808482 -0.691130 -2.175573 -3.635261 -6.139278 -2.033950 -0.920992 8.361069 -15.298282 -7.147640 -3.032042 -0.239002 0.162135 0.000000 0.000000 0.000000 4.289313 5.250388 -2.520003 -81.192003 -23.364828 27.257348 -178.421954 -65.080193 179.809085 21.023229 -23.463754 -4.875891 -0.754496 1.589970 -0.000000 0.000000 0.000000 0.000000 0.000000 0.000000 0.000000 3.257794 -11.191459 -1.074899 76.251593 -6.829095 26.035756 -178.864040 67.332856 179.822328 -15.742528 25.867101 -3.847411 0.188067 -1.112562 0.000000 0.000000 0.000000 0.000000 0.000000 0.000000 0.000000 
4.422396 16.567282 -2.660520 176.863906 53.763690 -168.928580 -1.593677 -2.650833 -4.889432 -0.544650 -2.571701 -3.651867 -5.956102 -2.451914 -0.912696 8.266865 -15.768391 -7.154331 -2.956251 -0.233776 0.169894 0.000000 0.000000 0.000000 4.955215 4.598284 -2.602386 -81.831091 -23.807120 28.151034 -178.386869 -64.670801 179.813784 20.292456 -23.640275 -4.746053 -0.740201 1.622877 -0.000000 0.000000 0.000000 0.000000 0.000000 0.000000 0.000000 2.804216 -11.909684 -1.039450 75.412486 -7.898491 25.997105 -178.859147 66.709583 179.823249 -15.649359 25.840277 -3.819689 0.185433 -1.109275 0.000000 0.000000 0.000000 0.000000 0.000000 0.000000 0.000000 
4.627263 16.686878 -2.771040 177.485092 53.526789 -168.512965 -1.194274 -3.016137 -4.963804 -0.391391 -2.964734 -3.672982 -5.755233 -2.868490 -0.909256 8.163198 -16.203596 -7.159245 -2.883293 -0.228822 0.178185 0.000000 0.000000 0.000000 5.642544 4.008330 -2.686926 -82.470459 -24.014672 28.944592 -178.372068 -64.249677 179.818642 19.588572 -23.775820 -4.610999 -0.724266 1.651096 -0.000000 0.000000 0.000000 0.000000 0.000000 0.000000 0.000000 2.361552 -12.582442 -1.023118 74.540477 -8.874755 25.989439 -178.865762 66.124336 179.825066 -15.470665 25.843188 -3.775190 0.181500 -1.106296 0.000000 0.000000 0.000000 0.000000 0.000000 0.000000 0.000000 
4.835083 16.810283 -2.885306 178.171911 53.362736 -168.066226 -0.763183 -3.367905 -5.039793 -0.231403 -3.347008 -3.699390 -5.539851 -3.275803 -0.908745 8.052841 -16.617144 -7.162602 -2.812767 -0.224119 0.186989 0.000000 0.000000 0.000000 6.340359 3.472207 -2.774120 -83.108888 -24.011743 29.650548 -178.381729 -63.842678 179.823353 18.928961 -23.868634 -4.475238 -0.707140 1.674100 -0.000000 0.000000 0.000000 0.000000 0.000000 0.000000 0.000000 1.933008 -13.221794 -1.024116 73.633738 -9.748735 26.008612 -178.884736 65.580164 179.827763 -15.211290 25.864311 -3.713408 0.176437 -1.103365 0.000000 0.000000 0.000000 0.000000 0.000000 0.000000 0.000000 
5.045656 16.935318 -3.002814 178.941471 53.270327 -167.560241 -0.293966 -3.699111 -5.126908 -0.064522 -3.712268 -3.732044 -5.313081 -3.667400 -0.909126 7.938752 -17.023812 -7.165413 -2.743939 -0.219605 0.196040 0.000000 0.000000 0.000000 7.042950 2.978772 -2.864860 -83.746187 -23.824569 30.279783 -178.419617 -63.468785 179.827670 18.323123 -23.920431 -4.342480 -0.689043 1.691656 -0.000000 0.000000 0.000000 0.000000 0.000000 0.000000 0.000000 1.519574 -13.841336 -1.039430 72.693185 -10.511828 26.050519 -178.916550 65.078345 179.831307 -14.877644 25.891696 -3.634047 0.170449 -1.100250 0.000000 0.000000 0.000000 0.000000 0.000000 0.000000 0.000000 
5.258828 17.059638 -3.122911 179.802245 53.243575 -166.973078 0.214218 -4.004955 -5.234149 0.108686 -4.055953 -3.771727 -5.077405 -4.038515 -0.908212 7.823174 -17.439793 -7.169451 -2.675768 -0.215179 0.204816 0.000000 0.000000 0.000000 7.750764 2.513641 -2.961044 -84.381560 -23.479061 30.838700 -178.489065 -63.135742 179.831395 17.772336 -23.935547 -4.214535 -0.669937 1.703857 -0.000000 0.000000 0.000000 0.000000 0.000000 0.000000 0.000000 1.119753 -14.456843 -1.064916 71.722577 -11.155305 26.113315 -178.961368 64.621987 179.835647 -14.478677 25.913826 -3.537702 0.163786 -1.096699 0.000000 0.000000 0.000000 0.000000 0.000000 0.000000 0.000000 
